<?xml version="1.0" encoding="UTF-8" standalone="no"?>
<!DOCTYPE svg PUBLIC "-//W3C//DTD SVG 1.1//EN"
 "http://www.w3.org/Graphics/SVG/1.1/DTD/svg11.dtd">
<!-- Generated by graphviz version 2.46.1 (20210213.1702)
 -->
<!-- Pages: 1 -->
<svg width="989pt" height="574pt"
 viewBox="0.00 0.00 989.00 574.00" xmlns="http://www.w3.org/2000/svg" xmlns:xlink="http://www.w3.org/1999/xlink">
<g id="graph0" class="graph" transform="scale(1 1) rotate(0) translate(4 570)">
<polygon fill="white" stroke="transparent" points="-4,4 -4,-570 985,-570 985,4 -4,4"/>
<g id="clust4" class="cluster">
<title>cluster_4</title>
<polygon fill="none" stroke="black" points="8,-265 8,-385 478,-385 478,-265 8,-265"/>
<text text-anchor="middle" x="243" y="-369.8" font-family="Times New Roman,serif" font-size="14.00">WinOps / Employee</text>
<text text-anchor="middle" x="243" y="-354.8" font-family="Times New Roman,serif" font-size="14.00"> &#160;&#160;&#160;&#160;&#160;&#160;&#160;Source Code Only for private modules</text>
<text text-anchor="middle" x="243" y="-339.8" font-family="Times New Roman,serif" font-size="14.00"> &#160;&#160;&#160;&#160;&#160;&#160;&#160;Install modules using PowerShellGet v3 Beta + Custom Repository Settings</text>
<text text-anchor="middle" x="243" y="-324.8" font-family="Times New Roman,serif" font-size="14.00"> &#160;&#160;&#160;&#160;&#160;&#160;&#160;</text>
</g>
<g id="clust3" class="cluster">
<title>cluster_3</title>
<polygon fill="none" stroke="black" points="503,-8 503,-113 973,-113 973,-8 503,-8"/>
<text text-anchor="middle" x="738" y="-97.8" font-family="Times New Roman,serif" font-size="14.00">AWSInfrastructure</text>
<text text-anchor="middle" x="738" y="-82.8" font-family="Times New Roman,serif" font-size="14.00"> &#160;&#160;&#160;&#160;&#160;&#160;&#160;Modules installed via PowerShellGet v3 Beta + Custom Repository Settings</text>
<text text-anchor="middle" x="738" y="-67.8" font-family="Times New Roman,serif" font-size="14.00"> &#160;&#160;&#160;&#160;&#160;&#160;&#160;[PowerShellGet v3 Beta; Not currently on the instances or in AMI]</text>
</g>
<g id="clust2" class="cluster">
<title>cluster_1</title>
<polygon fill="none" stroke="black" points="486,-121 486,-445 920,-445 920,-121 486,-121"/>
<text text-anchor="middle" x="703" y="-429.8" font-family="Times New Roman,serif" font-size="14.00">Github</text>
<text text-anchor="middle" x="703" y="-414.8" font-family="Times New Roman,serif" font-size="14.00"> &#160;&#160;&#160;&#160;&#160;&#160;&#160;[Github Packages</text>
<text text-anchor="middle" x="703" y="-399.8" font-family="Times New Roman,serif" font-size="14.00"> &#160;&#160;&#160;&#160;&#160;&#160;&#160;AKA PowerShelf v2</text>
<text text-anchor="middle" x="703" y="-384.8" font-family="Times New Roman,serif" font-size="14.00"> &#160;&#160;&#160;&#160;&#160;&#160;&#160;Nuget v3 only]</text>
<text text-anchor="middle" x="703" y="-369.8" font-family="Times New Roman,serif" font-size="14.00"> &#160;&#160;&#160;&#160;&#160;&#160;&#160;[Github Actions used for build</text>
<text text-anchor="middle" x="703" y="-354.8" font-family="Times New Roman,serif" font-size="14.00"> &#160;&#160;&#160;&#160;&#160;&#160;&#160;Actions not written or tested yet]</text>
<text text-anchor="middle" x="703" y="-339.8" font-family="Times New Roman,serif" font-size="14.00"> &#160;&#160;&#160;&#160;&#160;&#160;&#160;[Need to create 1 repo for each module instead of mono&#45;repo </text>
<text text-anchor="middle" x="703" y="-324.8" font-family="Times New Roman,serif" font-size="14.00"> &#160;&#160;&#160;&#160;&#160;&#160;&#160;Also need to create single repo for dependencies?]</text>
</g>
<g id="clust1" class="cluster">
<title>cluster_0</title>
<polygon fill="none" stroke="black" points="145,-453 145,-558 399,-558 399,-453 145,-453"/>
<text text-anchor="middle" x="272" y="-542.8" font-family="Times New Roman,serif" font-size="14.00">Public </text>
<text text-anchor="middle" x="272" y="-527.8" font-family="Times New Roman,serif" font-size="14.00"> &#160;&#160;&#160;&#160;&#160;&#160;&#160;Public Powershell Module repository</text>
<text text-anchor="middle" x="272" y="-512.8" font-family="Times New Roman,serif" font-size="14.00"> &#160;&#160;&#160;&#160;&#160;&#160;&#160;Sometimes used for dependencies</text>
</g>
<!-- PSGallery -->
<g id="node1" class="node">
<title>PSGallery</title>
<ellipse fill="#b2dfee" stroke="black" cx="272" cy="-479" rx="47.39" ry="18"/>
<text text-anchor="middle" x="272" y="-475.3" font-family="Times New Roman,serif" font-size="14.00">PSGallery</text>
</g>
<!-- Laptop -->
<g id="node8" class="node">
<title>Laptop</title>
<ellipse fill="#ffb5c5" stroke="black" cx="272" cy="-291" rx="37.09" ry="18"/>
<text text-anchor="middle" x="272" y="-287.3" font-family="Times New Roman,serif" font-size="14.00">Laptop</text>
</g>
<!-- PSGallery&#45;&gt;Laptop -->
<g id="edge1" class="edge">
<title>PSGallery&#45;&gt;Laptop</title>
<path fill="none" stroke="#1874cd" d="M272,-450.75C272,-415.48 272,-354.4 272,-319.17"/>
<polygon fill="#1874cd" stroke="#1874cd" points="268.5,-450.83 272,-460.83 275.5,-450.83 268.5,-450.83"/>
<polygon fill="#1874cd" stroke="#1874cd" points="275.5,-319.12 272,-309.12 268.5,-319.12 275.5,-319.12"/>
</g>
<!-- Github_Actions -->
<g id="node2" class="node">
<title>Github_Actions</title>
<ellipse fill="#00ee00" stroke="black" cx="843" cy="-219" rx="68.79" ry="18"/>
<text text-anchor="middle" x="843" y="-215.3" font-family="Times New Roman,serif" font-size="14.00">Github_Actions</text>
</g>
<!-- Github_Packages -->
<g id="node3" class="node">
<title>Github_Packages</title>
<ellipse fill="#9ac0cd" stroke="black" cx="625" cy="-147" rx="74.99" ry="18"/>
<text text-anchor="middle" x="625" y="-143.3" font-family="Times New Roman,serif" font-size="14.00">Github_Packages</text>
</g>
<!-- Github_Actions&#45;&gt;Github_Packages -->
<g id="edge5" class="edge">
<title>Github_Actions&#45;&gt;Github_Packages</title>
<path fill="none" stroke="#ee2c2c" d="M791.48,-201.46C757.28,-190.48 712.52,-176.1 678.02,-165.02"/>
<polygon fill="#ee2c2c" stroke="#ee2c2c" points="790.63,-204.86 801.23,-204.59 792.77,-198.2 790.63,-204.86"/>
<polygon fill="#ee2c2c" stroke="#ee2c2c" points="678.72,-161.57 668.12,-161.85 676.58,-168.24 678.72,-161.57"/>
</g>
<!-- EC2Instances -->
<g id="node6" class="node">
<title>EC2Instances</title>
<ellipse fill="#eeee00" stroke="black" cx="625" cy="-34" rx="61.19" ry="18"/>
<text text-anchor="middle" x="625" y="-30.3" font-family="Times New Roman,serif" font-size="14.00">EC2Instances</text>
</g>
<!-- Github_Packages&#45;&gt;EC2Instances -->
<g id="edge7" class="edge">
<title>Github_Packages&#45;&gt;EC2Instances</title>
<path fill="none" stroke="#ee2c2c" d="M625,-128.66C625,-110.9 625,-83.04 625,-62.32"/>
<polygon fill="#ee2c2c" stroke="#ee2c2c" points="628.5,-62.22 625,-52.22 621.5,-62.22 628.5,-62.22"/>
</g>
<!-- Github_Packages&#45;&gt;Laptop -->
<g id="edge4" class="edge">
<title>Github_Packages&#45;&gt;Laptop</title>
<path fill="none" stroke="#1874cd" d="M583.24,-162.08C523.68,-182.58 411.35,-222.82 319,-265 314.29,-267.15 309.38,-269.56 304.6,-272.01"/>
<polygon fill="#1874cd" stroke="#1874cd" points="302.86,-268.97 295.63,-276.71 306.11,-275.17 302.86,-268.97"/>
</g>
<!-- Github_Repository -->
<g id="node4" class="node">
<title>Github_Repository</title>
<ellipse fill="#9f79ee" stroke="black" cx="703" cy="-291" rx="81.49" ry="18"/>
<text text-anchor="middle" x="703" y="-287.3" font-family="Times New Roman,serif" font-size="14.00">Github_Repository</text>
</g>
<!-- Github_Repository&#45;&gt;Github_Actions -->
<g id="edge6" class="edge">
<title>Github_Repository&#45;&gt;Github_Actions</title>
<path fill="none" stroke="#ee2c2c" d="M734.42,-274.29C754.88,-264.06 781.73,-250.64 803.61,-239.7"/>
<polygon fill="#ee2c2c" stroke="#ee2c2c" points="805.27,-242.78 812.65,-235.18 802.14,-236.52 805.27,-242.78"/>
</g>
<!-- Github_Dependency_Repository -->
<g id="node5" class="node">
<title>Github_Dependency_Repository</title>
<ellipse fill="#9f79ee" stroke="black" cx="625" cy="-219" rx="131.08" ry="18"/>
<text text-anchor="middle" x="625" y="-215.3" font-family="Times New Roman,serif" font-size="14.00">Github_Dependency_Repository</text>
</g>
<!-- Github_Dependency_Repository&#45;&gt;Github_Packages -->
<g id="edge8" class="edge">
<title>Github_Dependency_Repository&#45;&gt;Github_Packages</title>
<path fill="none" stroke="#ee2c2c" d="M625,-200.7C625,-192.98 625,-183.71 625,-175.11"/>
<polygon fill="#ee2c2c" stroke="#ee2c2c" points="628.5,-175.1 625,-165.1 621.5,-175.1 628.5,-175.1"/>
</g>
<!-- CustomModules -->
<g id="node7" class="node">
<title>CustomModules</title>
<ellipse fill="#ab82ff" stroke="black" cx="399" cy="-291" rx="71.49" ry="18"/>
<text text-anchor="middle" x="399" y="-287.3" font-family="Times New Roman,serif" font-size="14.00">CustomModules</text>
</g>
<!-- CustomModules&#45;&gt;Github_Repository -->
<g id="edge2" class="edge">
<title>CustomModules&#45;&gt;Github_Repository</title>
<path fill="none" stroke="#ee2c2c" d="M480.59,-291C524.24,-291 567.88,-291 611.53,-291"/>
<polygon fill="#ee2c2c" stroke="#ee2c2c" points="480.55,-287.5 470.55,-291 480.55,-294.5 480.55,-287.5"/>
<polygon fill="#ee2c2c" stroke="#ee2c2c" points="611.73,-294.5 621.73,-291 611.73,-287.5 611.73,-294.5"/>
</g>
<!-- Laptop&#45;&gt;Github_Dependency_Repository -->
<g id="edge3" class="edge">
<title>Laptop&#45;&gt;Github_Dependency_Repository</title>
<path fill="none" stroke="#ee2c2c" d="M293.78,-276.42C301.49,-272.15 310.4,-267.83 319,-265 376.75,-246.03 443.26,-235.03 499.49,-228.67"/>
<polygon fill="#ee2c2c" stroke="#ee2c2c" points="499.95,-232.15 509.51,-227.58 499.18,-225.19 499.95,-232.15"/>
</g>
</g>
</svg>
