<?xml version="1.0" encoding="UTF-8" standalone="no"?>
<!DOCTYPE svg PUBLIC "-//W3C//DTD SVG 1.1//EN"
 "http://www.w3.org/Graphics/SVG/1.1/DTD/svg11.dtd">
<!-- Generated by graphviz version 2.46.1 (20210213.1702)
 -->
<!-- Pages: 1 -->
<svg width="638pt" height="483pt"
 viewBox="0.00 0.00 638.00 483.00" xmlns="http://www.w3.org/2000/svg" xmlns:xlink="http://www.w3.org/1999/xlink">
<g id="graph0" class="graph" transform="scale(1 1) rotate(0) translate(4 479)">
<polygon fill="white" stroke="transparent" points="-4,4 -4,-479 634,-479 634,4 -4,4"/>
<g id="clust1" class="cluster">
<title>cluster_0</title>
<polygon fill="none" stroke="black" points="8,-362 8,-467 262,-467 262,-362 8,-362"/>
<text text-anchor="middle" x="135" y="-451.8" font-family="Times New Roman,serif" font-size="14.00">Public </text>
<text text-anchor="middle" x="135" y="-436.8" font-family="Times New Roman,serif" font-size="14.00"> &#160;&#160;&#160;&#160;&#160;&#160;&#160;Public Powershell Module repository</text>
<text text-anchor="middle" x="135" y="-421.8" font-family="Times New Roman,serif" font-size="14.00"> &#160;&#160;&#160;&#160;&#160;&#160;&#160;Sometimes used for dependencies</text>
</g>
<g id="clust2" class="cluster">
<title>cluster_1</title>
<polygon fill="none" stroke="black" points="196,-121 196,-211 340,-211 340,-121 196,-121"/>
<text text-anchor="middle" x="268" y="-195.8" font-family="Times New Roman,serif" font-size="14.00">Private Repository</text>
<text text-anchor="middle" x="268" y="-180.8" font-family="Times New Roman,serif" font-size="14.00"> &#160;&#160;&#160;&#160;&#160;&#160;&#160;AKA PowerShelf</text>
</g>
<g id="clust3" class="cluster">
<title>cluster_3</title>
<polygon fill="none" stroke="black" points="134,-8 134,-113 571,-113 571,-8 134,-8"/>
<text text-anchor="middle" x="352.5" y="-97.8" font-family="Times New Roman,serif" font-size="14.00">AWSInfrastructure</text>
<text text-anchor="middle" x="352.5" y="-82.8" font-family="Times New Roman,serif" font-size="14.00"> &#160;&#160;&#160;&#160;&#160;&#160;&#160;Modules installed via PowerShelf module baked into AMI</text>
<text text-anchor="middle" x="352.5" y="-67.8" font-family="Times New Roman,serif" font-size="14.00"> &#160;&#160;&#160;&#160;&#160;&#160;&#160;Uses PowerShellGet v2, which is ubiquitous and works with Nuget v2</text>
</g>
<g id="clust5" class="cluster">
<title>cluster_5</title>
<polygon fill="none" stroke="black" points="270,-362 270,-452 576,-452 576,-362 270,-362"/>
<text text-anchor="middle" x="423" y="-436.8" font-family="Times New Roman,serif" font-size="14.00">Github Source Control</text>
<text text-anchor="middle" x="423" y="-421.8" font-family="Times New Roman,serif" font-size="14.00"> &#160;&#160;&#160;&#160;&#160;&#160;&#160;(Mostly mono&#45;repo domain&#45;devops&#45;windows)</text>
</g>
<g id="clust4" class="cluster">
<title>cluster_4</title>
<polygon fill="none" stroke="black" points="136,-219 136,-354 622,-354 622,-219 136,-219"/>
<text text-anchor="middle" x="379" y="-338.8" font-family="Times New Roman,serif" font-size="14.00">WinOps / Employee</text>
<text text-anchor="middle" x="379" y="-323.8" font-family="Times New Roman,serif" font-size="14.00"> &#160;&#160;&#160;&#160;&#160;&#160;&#160;Pushes public modules to Artifactory via Publish&#45;Module cmdlet</text>
<text text-anchor="middle" x="379" y="-308.8" font-family="Times New Roman,serif" font-size="14.00"> &#160;&#160;&#160;&#160;&#160;&#160;&#160;Versions and pushes private modules with Bartender</text>
<text text-anchor="middle" x="379" y="-293.8" font-family="Times New Roman,serif" font-size="14.00"> &#160;&#160;&#160;&#160;&#160;&#160;&#160;Occasionally push OpenSource or personal modules to PSGallery w bartender</text>
<text text-anchor="middle" x="379" y="-278.8" font-family="Times New Roman,serif" font-size="14.00"> &#160;&#160;&#160;&#160;&#160;&#160;&#160;Uses PowerShellGet v2, which is ubiquitous and works with Nuget v2</text>
</g>
<!-- PSGallery -->
<g id="node1" class="node">
<title>PSGallery</title>
<ellipse fill="#b2dfee" stroke="black" cx="207" cy="-388" rx="47.39" ry="18"/>
<text text-anchor="middle" x="207" y="-384.3" font-family="Times New Roman,serif" font-size="14.00">PSGallery</text>
</g>
<!-- Laptop -->
<g id="node4" class="node">
<title>Laptop</title>
<ellipse fill="#ffb5c5" stroke="black" cx="217" cy="-245" rx="37.09" ry="18"/>
<text text-anchor="middle" x="217" y="-241.3" font-family="Times New Roman,serif" font-size="14.00">Laptop</text>
</g>
<!-- PSGallery&#45;&gt;Laptop -->
<g id="edge1" class="edge">
<title>PSGallery&#45;&gt;Laptop</title>
<path fill="none" stroke="#1874cd" d="M208.92,-359.87C210.69,-334.97 213.29,-298.26 215.06,-273.3"/>
<polygon fill="#1874cd" stroke="#1874cd" points="205.42,-359.77 208.21,-369.99 212.4,-360.26 205.42,-359.77"/>
<polygon fill="#1874cd" stroke="#1874cd" points="218.57,-273.29 215.79,-263.07 211.59,-272.8 218.57,-273.29"/>
</g>
<!-- Artifactory -->
<g id="node2" class="node">
<title>Artifactory</title>
<ellipse fill="#00ff00" stroke="black" cx="268" cy="-147" rx="50.09" ry="18"/>
<text text-anchor="middle" x="268" y="-143.3" font-family="Times New Roman,serif" font-size="14.00">Artifactory</text>
</g>
<!-- EC2Instances -->
<g id="node3" class="node">
<title>EC2Instances</title>
<ellipse fill="#eeee00" stroke="black" cx="268" cy="-34" rx="61.19" ry="18"/>
<text text-anchor="middle" x="268" y="-30.3" font-family="Times New Roman,serif" font-size="14.00">EC2Instances</text>
</g>
<!-- Artifactory&#45;&gt;EC2Instances -->
<g id="edge5" class="edge">
<title>Artifactory&#45;&gt;EC2Instances</title>
<path fill="none" stroke="#1874cd" d="M268,-128.66C268,-110.9 268,-83.04 268,-62.32"/>
<polygon fill="#1874cd" stroke="#1874cd" points="271.5,-62.22 268,-52.22 264.5,-62.22 271.5,-62.22"/>
</g>
<!-- Laptop&#45;&gt;Artifactory -->
<g id="edge2" class="edge">
<title>Laptop&#45;&gt;Artifactory</title>
<path fill="none" stroke="#1874cd" d="M230.59,-218.42C237.91,-204.64 246.93,-187.67 254.27,-173.84"/>
<polygon fill="#1874cd" stroke="#1874cd" points="227.48,-216.8 225.88,-227.28 233.67,-220.09 227.48,-216.8"/>
<polygon fill="#1874cd" stroke="#1874cd" points="257.45,-175.33 259.05,-164.85 251.26,-172.04 257.45,-175.33"/>
</g>
<!-- CustomModules -->
<g id="node5" class="node">
<title>CustomModules</title>
<ellipse fill="#ab82ff" stroke="black" cx="364" cy="-245" rx="71.49" ry="18"/>
<text text-anchor="middle" x="364" y="-241.3" font-family="Times New Roman,serif" font-size="14.00">CustomModules</text>
</g>
<!-- CustomModules&#45;&gt;Artifactory -->
<g id="edge3" class="edge">
<title>CustomModules&#45;&gt;Artifactory</title>
<path fill="none" stroke="#1874cd" d="M347.28,-227.28C331.9,-211.9 308.95,-188.95 291.69,-171.69"/>
<polygon fill="#1874cd" stroke="#1874cd" points="293.76,-168.81 284.21,-164.21 288.81,-173.76 293.76,-168.81"/>
</g>
<!-- CustomModulesSource -->
<g id="node6" class="node">
<title>CustomModulesSource</title>
<ellipse fill="#9f79ee" stroke="black" cx="375" cy="-388" rx="96.68" ry="18"/>
<text text-anchor="middle" x="375" y="-384.3" font-family="Times New Roman,serif" font-size="14.00">CustomModulesSource</text>
</g>
<!-- CustomModulesSource&#45;&gt;CustomModules -->
<g id="edge4" class="edge">
<title>CustomModulesSource&#45;&gt;CustomModules</title>
<path fill="none" stroke="#1874cd" d="M372.88,-359.87C370.94,-334.97 368.08,-298.26 366.13,-273.3"/>
<polygon fill="#1874cd" stroke="#1874cd" points="369.41,-360.29 373.67,-369.99 376.38,-359.75 369.41,-360.29"/>
<polygon fill="#1874cd" stroke="#1874cd" points="369.6,-272.77 365.33,-263.07 362.62,-273.31 369.6,-272.77"/>
</g>
</g>
</svg>
